<?xml version="1.0"?>
<!-- Created with xTool Creative Space (https://www.xtool.com/pages/software) -->
<svg xmlns="http://www.w3.org/2000/svg" xmlns:xlink="http://www.w3.org/1999/xlink" xmlns:xcs="https://www.xtool.com/pages/software" version="1.1" preserveAspectRatio="xMinYMin meet" width="49.999653253953454mm" height="41.439246496011236mm" viewBox="289.45346316458676 102.40892264906208 49.999653253953454 41.439246496011236" xcs:version="2.4.27"><style>svg * { vector-effect: non-scaling-stroke; stroke-width: 1px; }</style>
<path transform="matrix(1.501942,0,0,1.501942,289.453463,102.409096)" stroke="none" fill="#000000" d="M8.143 21.547C8.522 21.449 8.827 21.087 8.827 20.736 8.827 20.429 8.745 20.378 8.719 20.668 8.653 21.398 7.796 21.688 7.252 21.165 7.068 20.988 6.965 20.729 6.949 20.399 6.932 20.062 6.977 19.922 7.179 19.688 7.381 19.453 7.912 19.12 8.083 19.12 8.121 19.12 8.17 19.102 8.192 19.08 8.261 19.011 8.235 19.073 8.155 19.166 7.979 19.371 7.855 19.621 7.853 19.776 7.852 19.894 7.864 19.931 7.908 19.939 7.947 19.947 7.972 19.922 7.988 19.858 8.071 19.521 8.355 19.172 8.626 19.074 8.768 19.023 8.848 19.018 9.133 19.037 9.319 19.05 9.546 19.08 9.637 19.104 9.945 19.183 10.924 19.525 11.19 19.646 11.263 19.679 11.382 19.725 11.455 19.748 11.528 19.771 11.621 19.803 11.663 19.819 11.705 19.834 11.777 19.848 11.823 19.848 11.869 19.848 12.11 19.898 12.359 19.961 13.138 20.157 13.733 20.182 14.934 20.069 15.372 20.028 15.476 20.006 15.432 19.962 15.423 19.953 15.216 19.937 14.972 19.928 14.275 19.9 13.647 19.78 13.091 19.567 12.123 19.198 11.555 18.888 10.952 18.403 10.45 17.998 10.194 17.657 10.04 17.186 9.924 16.831 9.895 16.648 9.848 15.983 9.826 15.672 9.797 15.417 9.784 15.417 9.7 15.417 9.627 15.708 9.598 16.161 9.581 16.427 9.608 16.698 9.67 16.889 9.69 16.95 9.689 16.951 9.653 16.894 9.582 16.785 9.552 16.629 9.502 16.115 9.475 15.835 9.445 15.594 9.435 15.578 9.393 15.509 9.323 15.562 9.268 15.707 9.223 15.822 9.207 15.951 9.208 16.195 9.209 16.698 9.343 17.079 9.651 17.459 9.879 17.74 9.803 17.722 9.564 17.438 9.089 16.874 8.962 16.606 8.86 15.944 8.802 15.57 8.763 14.776 8.801 14.738 8.807 14.732 8.919 14.705 9.05 14.677 9.546 14.574 9.895 14.186 9.985 13.641 10.067 13.139 9.734 12.506 9.273 12.289 9.152 12.232 9.049 12.211 8.89 12.211 8.196 12.21 7.557 12.754 7.354 13.517 7.299 13.724 7.282 14.311 7.321 14.634L7.343 14.806 7.242 14.641C6.964 14.185 6.844 13.642 6.906 13.118 6.959 12.668 7.172 12.082 7.402 11.75 7.483 11.634 7.67 11.23 7.67 11.171 7.67 11.145 7.682 11.116 7.696 11.107 7.711 11.098 7.757 10.975 7.8 10.833 7.842 10.691 7.908 10.478 7.947 10.36 7.998 10.202 8.016 10.065 8.015 9.847 8.013 9.545 7.981 9.343 7.942 9.382 7.931 9.393 7.879 9.283 7.827 9.136 7.712 8.809 7.628 8.698 7.355 8.511 7.209 8.41 6.971 8.338 6.909 8.376 6.88 8.394 6.875 8.461 6.892 8.612 6.934 9 7.049 9.275 7.259 9.488 7.419 9.65 7.444 9.658 7.528 9.571 7.618 9.477 7.761 9.394 7.779 9.424 7.82 9.49 7.869 9.875 7.851 9.988 7.806 10.268 7.803 10.275 7.756 10.21 7.718 10.159 7.711 10.175 7.694 10.338 7.664 10.62 7.544 10.963 7.327 11.384 6.896 12.218 6.84 12.336 6.761 12.593 6.654 12.935 6.6 13.356 6.626 13.645L6.646 13.873 6.503 13.678C6.246 13.329 5.755 12.871 5.353 12.604 4.868 12.281 4.789 12.235 3.719 11.667 3.628 11.618 3.341 11.507 3.081 11.418 2.694 11.288 2.604 11.267 2.589 11.306 2.568 11.361 2.592 11.382 2.959 11.627 3.224 11.805 3.459 11.936 4.165 12.3 4.375 12.409 4.694 12.589 4.876 12.702 5.058 12.815 5.237 12.925 5.273 12.947 5.309 12.969 5.346 12.997 5.356 13.008 5.365 13.018 5.407 13.046 5.45 13.069 5.559 13.126 5.887 13.378 5.964 13.463 6.069 13.58 5.988 13.542 5.807 13.389 4.971 12.684 3.682 12.219 2.645 12.248 2.344 12.257 2.28 12.249 2.165 12.189 2.093 12.15 1.966 12.099 1.884 12.075 1.803 12.051 1.721 12.016 1.702 11.996 1.634 11.921 1.32 11.839 1.177 11.858 0.695 11.924 0.774 12.068 1.372 12.209 1.613 12.267 1.642 12.267 1.694 12.22 1.747 12.172 1.767 12.173 1.921 12.222 2.014 12.252 2.119 12.277 2.155 12.277 2.19 12.277 2.21 12.292 2.198 12.31 2.187 12.328 2.153 12.343 2.123 12.343 2.037 12.343 1.53 12.602 1.509 12.657 1.484 12.721 1.506 12.72 1.757 12.641 2.061 12.545 2.646 12.504 3.173 12.541 3.415 12.559 3.618 12.578 3.625 12.585 3.632 12.592 3.471 12.608 3.268 12.62 2.547 12.664 2.023 12.868 1.523 13.3 1.144 13.627 0.849 14.11 0.643 14.74 0.553 15.015 0.546 15.073 0.548 15.5 0.551 15.903 0.563 16.001 0.64 16.257 0.735 16.57 0.892 16.925 1.006 17.087 1.044 17.142 1.095 17.225 1.119 17.272 1.143 17.319 1.215 17.416 1.278 17.487 1.342 17.558 1.427 17.653 1.466 17.699 1.505 17.745 1.604 17.834 1.686 17.898 1.768 17.961 1.842 18.02 1.851 18.029 1.905 18.083 2.182 18.261 2.212 18.261 2.232 18.261 2.248 18.274 2.248 18.29 2.248 18.321 2.777 18.547 3.058 18.636 3.149 18.664 3.32 18.706 3.438 18.729 3.727 18.785 4.686 18.782 4.951 18.725 5.066 18.701 5.167 18.69 5.178 18.7 5.188 18.71 5.132 18.752 5.053 18.792 4.875 18.883 4.268 19.285 4.06 19.45 3.818 19.642 3.665 19.848 3.766 19.848 3.782 19.848 3.99 19.751 4.227 19.634 4.464 19.516 4.747 19.382 4.856 19.336 4.965 19.291 5.267 19.147 5.527 19.018 6.42 18.575 7.22 18.277 7.736 18.196 8.194 18.124 8.984 18.173 9.474 18.305 9.666 18.357 10.061 18.527 10.077 18.566 10.083 18.579 10.109 18.591 10.134 18.591 10.159 18.591 10.255 18.636 10.347 18.69 10.44 18.745 10.522 18.789 10.53 18.789 10.538 18.789 10.623 18.84 10.719 18.9 10.864 18.993 11.466 19.295 12.017 19.551 12.243 19.656 13.142 19.901 13.587 19.979 13.756 20.008 13.749 20.01 13.488 19.997 13.072 19.977 12.377 19.835 12.116 19.717 12.08 19.7 11.916 19.646 11.752 19.596 11.38 19.482 11.143 19.384 10.579 19.112 9.669 18.674 9.423 18.588 8.827 18.505 8.171 18.413 7.361 18.49 6.873 18.692 6.22 18.961 5.79 19.38 5.491 20.039 5.383 20.279 5.376 20.376 5.469 20.376 5.582 20.376 5.879 20.299 6.017 20.233 6.224 20.134 6.226 20.132 6.773 19.622 7.16 19.261 7.356 19.112 7.566 19.019 7.773 18.927 7.771 18.938 7.551 19.09 7.136 19.378 6.915 19.658 6.824 20.014 6.651 20.689 7.021 21.38 7.646 21.548 7.871 21.609 7.904 21.609 8.143 21.547ZM3.265 18.413C2.913 18.332 2.525 18.169 2.223 17.976 2.016 17.843 1.389 17.223 1.389 17.151 1.389 17.125 1.377 17.103 1.363 17.103 1.349 17.103 1.323 17.075 1.305 17.04 1.288 17.005 1.225 16.897 1.168 16.8 1.009 16.534 0.9 16.198 0.844 15.799 0.785 15.376 0.787 15.417 0.819 15.417 0.833 15.417 0.861 15.508 0.882 15.618 0.934 15.889 1.165 16.343 1.359 16.556 1.517 16.728 1.877 16.938 2.015 16.938 2.048 16.938 2.085 16.962 2.096 16.991 2.111 17.031 2.14 17.039 2.207 17.022 2.256 17.009 2.305 16.988 2.314 16.974 2.344 16.93 2.541 16.876 2.753 16.854 3.021 16.827 3.255 16.762 3.446 16.66 3.592 16.583 3.606 16.581 3.703 16.629 3.832 16.693 3.87 16.665 3.756 16.59L3.671 16.535 3.802 16.401C3.875 16.327 3.934 16.255 3.934 16.241 3.934 16.227 3.956 16.194 3.983 16.167 4.064 16.086 4.199 15.635 4.198 15.445 4.198 15.073 4.032 14.68 3.772 14.435 3.638 14.308 3.356 14.19 3.14 14.17 2.947 14.153 2.604 14.207 2.529 14.268 2.511 14.283 2.444 14.328 2.382 14.369 2.082 14.563 1.909 15.099 2.018 15.492 2.037 15.56 2.067 15.616 2.084 15.616 2.102 15.616 2.116 15.655 2.116 15.702 2.116 15.786 2.114 15.787 2.035 15.736 1.924 15.663 1.896 15.724 1.984 15.848 2.108 16.022 2.328 15.96 2.496 15.703 2.539 15.637 2.56 15.509 2.578 15.21 2.591 14.988 2.613 14.781 2.626 14.751 2.654 14.685 2.84 14.591 2.942 14.591 3.018 14.591 3.23 14.68 3.256 14.723 3.265 14.737 3.214 14.749 3.142 14.75 2.829 14.755 2.728 14.914 2.678 15.478 2.661 15.672 2.628 15.905 2.603 15.996 2.566 16.135 2.54 16.171 2.436 16.222 2.316 16.282 2.311 16.282 2.157 16.212 2.071 16.172 1.974 16.126 1.943 16.109 1.847 16.058 1.7 16.075 1.637 16.144 1.591 16.195 1.582 16.244 1.596 16.366 1.605 16.452 1.63 16.528 1.65 16.535 1.67 16.542 1.703 16.578 1.723 16.615 1.784 16.728 1.458 16.478 1.37 16.343 1.187 16.065 1.05 15.521 1.048 15.071 1.047 14.709 1.114 14.452 1.283 14.162 1.375 14.006 1.815 13.549 1.949 13.472 1.991 13.448 2.079 13.397 2.145 13.359 2.631 13.08 3.036 12.971 3.586 12.971 4.22 12.971 4.886 13.198 5.546 13.64 5.805 13.813 6.282 14.216 6.44 14.397 6.495 14.459 6.615 14.588 6.707 14.683 6.872 14.854 6.894 14.92 6.741 14.786 6.439 14.523 5.889 14.419 5.589 14.568 5.389 14.667 5.377 14.723 5.557 14.723 5.924 14.723 6.328 14.849 6.641 15.061 6.913 15.245 7.406 15.773 7.917 16.429 7.972 16.499 8.062 16.609 8.117 16.673 8.172 16.737 8.275 16.864 8.346 16.955 8.417 17.046 8.647 17.289 8.857 17.496 9.134 17.769 9.217 17.868 9.157 17.854 9.112 17.843 8.859 17.795 8.595 17.747 8.142 17.664 8.059 17.66 7.092 17.661 6.529 17.661 6.06 17.651 6.051 17.638 6.041 17.625 5.885 17.565 5.703 17.506 5.407 17.409 5.119 17.262 4.997 17.145 4.973 17.122 4.899 17.062 4.832 17.012 4.765 16.963 4.703 16.914 4.694 16.905 4.656 16.867 4.4 16.707 4.215 16.606 4.106 16.547 3.983 16.476 3.942 16.45 3.867 16.401 3.842 16.427 3.869 16.525 3.874 16.543 3.881 16.588 3.884 16.625 3.89 16.706 4.159 16.988 4.364 17.126 4.58 17.273 4.88 17.414 5.107 17.477 5.217 17.508 5.412 17.562 5.541 17.599 5.67 17.635 5.811 17.665 5.853 17.665 5.901 17.665 5.918 17.677 5.899 17.696 5.864 17.729 4.866 17.686 4.449 17.633 4.107 17.589 4.066 17.59 4.066 17.647 4.066 17.693 4.172 17.732 4.612 17.846 4.89 17.919 5.437 17.962 6.132 17.966L6.728 17.97 6.48 18.013C6.343 18.036 6.083 18.096 5.901 18.146 5.017 18.387 3.721 18.518 3.265 18.413ZM7.685 17.369C7.712 17.326 7.59 17.255 7.372 17.186 7.164 17.119 6.975 16.946 6.787 16.646 6.722 16.543 6.638 16.424 6.599 16.38 6.447 16.21 6.112 16.054 5.985 16.095 5.922 16.115 5.921 16.123 5.966 16.23 6.034 16.393 5.976 16.369 5.838 16.178 5.773 16.087 5.705 16.013 5.688 16.013 5.619 16.013 5.618 16.089 5.683 16.229 5.721 16.309 5.752 16.393 5.752 16.414 5.752 16.436 5.762 16.444 5.773 16.432 5.785 16.421 5.823 16.469 5.858 16.541 6.006 16.84 6.246 16.979 6.94 17.17 7.132 17.223 7.364 17.296 7.455 17.332 7.648 17.409 7.66 17.411 7.685 17.369ZM5.91 15.872C5.939 15.848 5.99 15.855 6.081 15.896 6.151 15.928 6.226 15.944 6.245 15.932 6.366 15.858 6.164 15.543 5.915 15.416 5.652 15.282 5.383 15.274 5.336 15.398 5.31 15.464 5.403 15.648 5.544 15.813 5.649 15.935 5.672 15.947 5.765 15.928 5.821 15.916 5.887 15.891 5.91 15.872ZM8.884 16.884C8.844 16.836 8.779 16.765 8.74 16.727 8.563 16.552 8 15.696 8 15.603 8 15.586 7.981 15.548 7.957 15.519 7.895 15.445 7.747 15.075 7.679 14.822 7.596 14.515 7.597 13.719 7.679 13.473 7.834 13.013 8.197 12.705 8.634 12.662 8.731 12.653 8.914 12.624 9.041 12.597 9.179 12.568 9.3 12.56 9.343 12.576 9.458 12.62 9.641 12.829 9.74 13.031 9.867 13.292 9.87 13.666 9.745 13.919 9.514 14.391 9.125 14.638 8.712 14.576 8.515 14.547 8.384 14.42 8.317 14.194 8.269 14.032 8.269 13.999 8.315 13.84 8.355 13.7 8.394 13.644 8.502 13.566 8.656 13.454 8.758 13.443 8.892 13.522 8.992 13.581 9.091 13.756 9.091 13.873 9.091 13.967 8.981 14.147 8.897 14.192 8.8 14.244 8.661 14.183 8.661 14.088 8.66 13.978 8.611 13.917 8.545 13.942 8.499 13.96 8.492 13.99 8.507 14.087 8.534 14.256 8.658 14.36 8.834 14.36 8.952 14.36 8.989 14.34 9.111 14.212L9.253 14.065 9.246 13.828 9.24 13.592 9.084 13.451C8.92 13.303 8.807 13.262 8.645 13.293 8.342 13.352 8.133 13.643 8.133 14.005 8.133 14.187 8.148 14.24 8.251 14.411 8.317 14.519 8.374 14.637 8.38 14.674 8.385 14.71 8.434 14.874 8.49 15.037 8.545 15.201 8.606 15.454 8.627 15.599 8.647 15.745 8.677 15.923 8.694 15.996 8.832 16.582 8.875 16.739 8.927 16.847 8.997 16.994 8.985 17.003 8.884 16.884ZM2.089 16.69C2.068 16.645 2.031 16.608 2.007 16.608 1.983 16.608 1.92 16.563 1.867 16.508 1.783 16.42 1.778 16.403 1.821 16.359 1.865 16.316 1.887 16.319 2.018 16.384 2.135 16.443 2.164 16.475 2.157 16.534 2.147 16.633 2.227 16.662 2.33 16.595 2.425 16.532 2.446 16.529 2.446 16.576 2.446 16.636 2.275 16.773 2.199 16.773 2.154 16.773 2.112 16.742 2.089 16.69ZM2.744 16.529C2.744 16.502 2.829 16.355 2.909 16.243 2.989 16.131 2.992 16.115 2.981 15.661 2.972 15.269 2.979 15.175 3.027 15.082 3.095 14.949 3.128 14.925 3.211 14.946 3.313 14.973 3.372 15.089 3.372 15.263 3.372 15.389 3.353 15.447 3.285 15.528 3.236 15.586 3.181 15.633 3.161 15.633 3.141 15.633 3.12 15.659 3.114 15.69 3.107 15.726 3.123 15.748 3.155 15.748 3.214 15.748 3.228 15.953 3.177 16.087 3.125 16.225 2.744 16.613 2.744 16.529ZM2.222 15.65C2.267 15.577 2.299 15.586 2.27 15.664 2.259 15.692 2.235 15.715 2.216 15.715 2.194 15.715 2.196 15.691 2.222 15.65ZM2.259 15.17C2.271 15.033 2.301 14.873 2.326 14.814 2.371 14.706 2.561 14.524 2.626 14.526 2.646 14.526 2.635 14.542 2.604 14.56 2.49 14.627 2.381 14.872 2.342 15.148 2.293 15.493 2.23 15.509 2.259 15.17ZM25.815 21.491C26.274 21.276 26.581 20.666 26.48 20.17 26.408 19.816 26.264 19.57 25.967 19.294 25.763 19.103 25.729 19.061 25.819 19.105 25.883 19.137 25.979 19.198 26.034 19.242 26.278 19.438 26.404 19.546 26.598 19.725 26.97 20.069 27.022 20.109 27.253 20.231 27.421 20.32 27.524 20.352 27.65 20.356 27.813 20.36 27.819 20.356 27.83 20.265 27.836 20.213 27.825 20.154 27.805 20.134 27.785 20.115 27.769 20.076 27.769 20.047 27.769 19.904 27.442 19.428 27.153 19.147 26.899 18.902 26.321 18.648 25.703 18.51 25.135 18.384 24.185 18.486 23.587 18.739 23.533 18.762 23.384 18.823 23.257 18.874 23.13 18.925 22.862 19.047 22.662 19.145 22.462 19.244 22.187 19.368 22.05 19.422 21.914 19.476 21.758 19.54 21.703 19.564 21.286 19.75 20.595 19.916 19.972 19.979 19.509 20.025 19.318 20.015 19.687 19.963 20.568 19.84 21.727 19.402 22.794 18.789 23.597 18.328 24.032 18.185 24.778 18.14 25.071 18.122 25.26 18.138 25.67 18.212 25.965 18.266 26.52 18.441 26.844 18.582 26.996 18.648 27.442 18.853 27.505 18.885 27.532 18.899 27.644 18.956 27.753 19.013 27.862 19.069 28.07 19.169 28.216 19.235 28.361 19.302 28.701 19.468 28.971 19.604 29.241 19.741 29.471 19.843 29.482 19.832 29.522 19.792 29.381 19.597 29.219 19.467 29.128 19.394 29.036 19.32 29.015 19.302 28.805 19.123 28.469 18.903 28.199 18.767 27.958 18.646 27.991 18.632 28.321 18.712 28.648 18.793 29.544 18.792 29.902 18.712 31.39 18.377 32.378 17.384 32.679 15.919 32.856 15.056 32.509 14.066 31.778 13.346 31.624 13.195 31.484 13.07 31.467 13.07 31.451 13.07 31.376 13.032 31.302 12.985 31.061 12.833 30.433 12.651 30.03 12.616 29.832 12.599 29.596 12.589 29.505 12.594 29.366 12.602 29.38 12.596 29.588 12.558 29.955 12.491 31.082 12.493 31.429 12.562 31.698 12.615 31.847 12.606 31.78 12.539 31.762 12.521 31.585 12.456 31.387 12.395L31.026 12.285 31.158 12.245C31.231 12.223 31.454 12.198 31.655 12.19 32.048 12.174 32.407 12.087 32.424 12.005 32.439 11.93 32.179 11.847 31.93 11.847 31.742 11.847 31.695 11.86 31.577 11.946 31.502 12.001 31.372 12.06 31.287 12.079 31.203 12.098 31.089 12.137 31.033 12.166 30.965 12.201 30.813 12.223 30.582 12.232 29.36 12.279 28.129 12.767 27.307 13.531 27.172 13.658 27.053 13.754 27.045 13.745 27.014 13.715 27.428 13.328 27.697 13.136 27.849 13.029 28.221 12.804 28.524 12.638 28.827 12.471 29.216 12.257 29.389 12.162 29.562 12.067 29.725 11.979 29.753 11.967 29.78 11.955 29.877 11.901 29.968 11.846 30.059 11.791 30.155 11.736 30.181 11.724 30.208 11.712 30.252 11.684 30.28 11.661 30.308 11.639 30.397 11.571 30.477 11.51 30.631 11.394 30.706 11.302 30.672 11.268 30.652 11.247 30.392 11.311 30.331 11.352 30.313 11.364 30.194 11.409 30.067 11.452 29.817 11.537 28.839 12.023 28.479 12.242 28.358 12.316 28.252 12.376 28.244 12.376 28.236 12.376 28.212 12.392 28.189 12.411 28.167 12.43 28.043 12.516 27.912 12.601 27.571 12.824 27.193 13.169 26.931 13.497 26.806 13.653 26.691 13.795 26.676 13.811 26.66 13.828 26.653 13.746 26.659 13.629 26.679 13.233 26.584 12.718 26.417 12.327 26.333 12.13 26.239 11.936 26.216 11.913 26.18 11.878 25.928 11.385 25.726 10.954 25.634 10.76 25.627 10.717 25.641 10.5 25.65 10.368 25.679 10.182 25.706 10.086 25.773 9.848 25.775 9.823 25.728 9.806 25.672 9.787 25.563 10.037 25.527 10.264L25.5 10.442 25.453 10.293C25.421 10.191 25.407 10.007 25.411 9.705 25.417 9.239 25.385 9.16 25.295 9.42 25.175 9.765 25.213 10.096 25.453 10.809 25.507 10.97 25.544 11.108 25.536 11.116 25.518 11.134 25.452 11.054 25.334 10.872 25.288 10.799 25.201 10.665 25.142 10.574 25.082 10.483 24.993 10.336 24.943 10.247 24.858 10.097 24.527 9.731 24.476 9.731 24.463 9.731 24.407 9.698 24.351 9.656 24.101 9.473 23.768 9.367 23.442 9.368 23.097 9.369 22.412 9.612 22.387 9.743 22.38 9.775 22.397 9.798 22.428 9.798 22.457 9.798 22.48 9.81 22.48 9.824 22.48 9.839 22.535 9.878 22.603 9.91 22.729 9.97 22.964 10.139 23.028 10.216 23.048 10.239 23.16 10.333 23.276 10.425 23.393 10.516 23.507 10.606 23.53 10.626 23.718 10.783 24.282 10.922 24.737 10.922 25.042 10.922 25.048 10.923 25.254 11.057 25.368 11.131 25.487 11.185 25.518 11.177 25.558 11.167 25.589 11.194 25.619 11.265 25.643 11.322 25.72 11.461 25.791 11.574 25.989 11.894 26.178 12.298 26.273 12.608 26.349 12.851 26.36 12.947 26.36 13.335 26.361 13.705 26.348 13.823 26.285 14.029 26.205 14.295 26.065 14.613 25.95 14.794L25.879 14.905 25.898 14.789C25.965 14.384 25.977 14.05 25.937 13.758 25.888 13.409 25.798 13.097 25.722 13.012 25.693 12.98 25.649 12.913 25.623 12.863 25.579 12.779 25.4 12.597 25.135 12.371 25.007 12.261 24.692 12.178 24.403 12.178 23.991 12.179 23.645 12.426 23.431 12.871 23.233 13.281 23.276 13.876 23.529 14.224 23.719 14.486 24.047 14.703 24.32 14.747 24.481 14.773 24.543 14.904 24.519 15.167 24.434 16.105 24.337 16.468 24.038 16.969 23.881 17.232 23.384 17.82 23.349 17.785 23.34 17.776 23.421 17.664 23.529 17.536 23.914 17.079 24.096 16.554 24.06 16.005 24.042 15.72 23.955 15.515 23.883 15.587 23.858 15.612 23.814 15.788 23.785 15.979 23.705 16.502 23.688 16.554 23.68 16.295 23.677 16.16 23.639 15.961 23.583 15.786 23.483 15.468 23.455 15.421 23.405 15.471 23.382 15.494 23.388 15.545 23.424 15.632 23.469 15.739 23.472 15.8 23.442 16.026 23.423 16.173 23.399 16.375 23.388 16.475 23.29 17.395 23.017 17.872 22.232 18.496 21.98 18.696 21.522 18.988 21.461 18.988 21.439 18.988 21.422 19.001 21.422 19.018 21.422 19.035 21.378 19.059 21.323 19.07 21.269 19.082 21.216 19.105 21.206 19.122 21.165 19.188 20.528 19.46 20.149 19.573 20.022 19.611 19.784 19.683 19.62 19.732 19.457 19.781 19.271 19.836 19.207 19.853 19.143 19.871 18.905 19.89 18.678 19.896 18.156 19.911 18.182 19.908 18.182 19.942 18.182 19.977 18.329 20.01 18.596 20.033 18.705 20.042 18.874 20.065 18.972 20.084 19.274 20.142 20.175 20.133 20.513 20.068 21.079 19.96 21.794 19.775 22.029 19.676 23.118 19.219 23.752 19.047 24.366 19.041 24.715 19.037 24.716 19.038 24.862 19.15 25.018 19.27 25.172 19.479 25.263 19.697 25.317 19.824 25.341 19.98 25.308 19.98 25.252 19.98 24.731 19.63 24.662 19.547 24.653 19.536 24.613 19.51 24.575 19.49 24.23 19.308 23.777 19.293 23.24 19.445 22.716 19.594 22.342 19.734 22.308 19.794 22.268 19.866 22.304 19.863 22.662 19.764 23.081 19.647 23.692 19.618 24.052 19.697 24.197 19.729 24.328 19.767 24.343 19.782 24.359 19.797 24.24 19.779 24.079 19.742 23.761 19.67 23.446 19.676 23.058 19.761 22.863 19.804 22.861 19.805 22.955 19.844 23.008 19.865 23.119 19.897 23.203 19.916 23.287 19.935 23.482 20.012 23.637 20.086 23.833 20.181 23.975 20.227 24.107 20.237 24.329 20.254 24.463 20.227 24.463 20.165 24.463 20.102 24.614 20.079 25.014 20.079L25.359 20.079 25.518 20.228C25.605 20.309 25.686 20.376 25.696 20.376 25.707 20.376 25.664 20.277 25.602 20.155 25.54 20.034 25.479 19.882 25.467 19.818 25.455 19.754 25.407 19.619 25.36 19.518 25.314 19.417 25.275 19.322 25.274 19.307 25.274 19.292 25.229 19.243 25.174 19.2L25.075 19.12 25.179 19.12C25.345 19.12 25.795 19.355 25.968 19.532 26.077 19.643 26.224 19.86 26.284 20 26.343 20.135 26.352 20.205 26.338 20.426 26.3 21.03 25.92 21.436 25.391 21.438 25.195 21.439 25.144 21.425 24.993 21.332 24.877 21.261 24.78 21.164 24.701 21.041 24.586 20.863 24.582 20.845 24.587 20.578 24.592 20.324 24.588 20.304 24.54 20.352 24.469 20.422 24.446 20.702 24.494 20.894 24.566 21.179 24.858 21.465 25.162 21.548 25.376 21.607 25.611 21.586 25.815 21.491ZM26.983 19.607C26.888 19.511 26.81 19.42 26.81 19.405 26.81 19.363 27.067 19.578 27.143 19.685 27.251 19.836 27.172 19.798 26.983 19.607ZM28.91 18.454C28.524 18.426 27.701 18.257 26.695 18.001 26.634 17.985 26.867 17.966 27.307 17.951 28.28 17.919 28.616 17.871 29.041 17.705 29.283 17.609 29.282 17.551 29.038 17.579 28.411 17.653 27.98 17.695 27.703 17.71L27.389 17.726 27.621 17.666C28.2 17.515 28.626 17.334 28.912 17.117 29.125 16.956 29.487 16.607 29.516 16.535 29.536 16.485 29.554 16.489 29.682 16.575 29.889 16.714 30.167 16.811 30.414 16.83 30.532 16.839 30.693 16.867 30.77 16.892 30.849 16.918 30.98 16.938 31.062 16.938 31.199 16.938 31.207 16.943 31.16 16.99 31.095 17.055 31.093 17.189 31.155 17.214 31.21 17.235 31.241 17.2 31.318 17.031 31.357 16.947 31.427 16.879 31.547 16.81 31.947 16.58 32.195 16.201 32.351 15.583L32.396 15.401 32.38 15.748C32.362 16.155 32.313 16.353 32.146 16.701 31.951 17.108 31.567 17.562 31.165 17.863 30.498 18.361 29.877 18.524 28.91 18.454ZM24.067 17.85C24.067 17.842 24.158 17.749 24.271 17.643 24.543 17.386 24.859 17.055 25.006 16.872 25.153 16.689 25.148 16.695 25.381 16.416 25.485 16.29 25.696 16.028 25.85 15.832 26.175 15.42 26.527 15.088 26.761 14.974 27.133 14.793 27.211 14.773 27.545 14.773 27.919 14.773 27.944 14.747 27.714 14.594 27.579 14.505 27.531 14.492 27.335 14.492 27.077 14.492 26.899 14.551 26.67 14.712 26.584 14.773 26.513 14.809 26.513 14.792 26.513 14.761 27.182 14.079 27.419 13.869 27.996 13.355 28.945 12.971 29.633 12.971 29.787 12.971 30.023 12.993 30.156 13.021 30.432 13.078 30.877 13.23 30.877 13.268 30.877 13.282 30.919 13.302 30.971 13.312 31.172 13.353 31.935 13.963 31.935 14.083 31.935 14.105 31.946 14.128 31.96 14.134 31.973 14.14 32.025 14.23 32.074 14.333 32.323 14.857 32.265 15.651 31.935 16.211 31.786 16.464 31.698 16.553 31.489 16.659 31.269 16.77 31.083 16.791 30.924 16.723L30.794 16.666 30.893 16.633C30.948 16.614 31.022 16.573 31.059 16.541 31.095 16.51 31.195 16.476 31.281 16.467 31.577 16.436 31.688 16.28 31.533 16.114L31.462 16.037 31.409 16.105C31.351 16.179 31.256 16.202 31.168 16.163 31.1 16.134 30.898 16.195 30.842 16.262 30.774 16.345 30.745 16.315 30.745 16.164 30.745 16.072 30.724 15.997 30.69 15.963 30.619 15.892 30.48 15.509 30.48 15.384 30.48 15.168 30.199 14.723 30.063 14.723 30.014 14.723 30.017 14.711 30.083 14.641 30.202 14.515 30.413 14.524 30.527 14.66 30.607 14.755 30.612 14.782 30.612 15.119 30.612 15.55 30.651 15.657 30.868 15.844 30.954 15.918 31.034 15.979 31.044 15.979 31.173 15.981 31.291 15.519 31.264 15.118 31.24 14.748 31.111 14.53 30.761 14.265 30.743 14.251 30.635 14.22 30.521 14.196 30.354 14.161 30.266 14.16 30.059 14.193 29.655 14.256 29.382 14.455 29.202 14.817 29.115 14.99 29.108 15.032 29.109 15.384 29.11 15.728 29.12 15.786 29.204 15.979 29.255 16.098 29.307 16.202 29.319 16.211 29.33 16.22 29.372 16.274 29.412 16.331L29.485 16.435 29.396 16.453C29.172 16.498 29.015 16.589 28.439 17.013 27.843 17.452 27.757 17.496 27.309 17.586 26.975 17.653 26.828 17.663 26.166 17.665 25.398 17.666 24.72 17.721 24.304 17.816 24.073 17.869 24.067 17.87 24.067 17.85ZM25.977 17.298C26.081 17.261 26.292 17.194 26.446 17.149 26.971 16.995 27.272 16.79 27.421 16.486 27.533 16.257 27.525 16.157 27.394 16.171 27.335 16.178 27.285 16.161 27.259 16.126 27.224 16.077 27.202 16.075 27.089 16.11 26.846 16.187 26.666 16.336 26.544 16.562 26.482 16.678 26.42 16.773 26.408 16.773 26.395 16.773 26.376 16.801 26.366 16.835 26.301 17.038 25.903 17.267 25.614 17.268 25.479 17.269 25.323 17.328 25.323 17.378 25.323 17.427 25.76 17.373 25.977 17.298ZM27.134 15.907C27.195 15.846 27.3 15.843 27.406 15.897 27.548 15.97 27.649 15.958 27.74 15.856 27.864 15.715 27.968 15.533 27.968 15.454 27.968 15.231 27.287 15.329 27.12 15.576 27.05 15.68 26.975 15.902 27.002 15.929 27.032 15.959 27.093 15.949 27.134 15.907ZM24.265 16.992C24.265 16.977 24.294 16.91 24.329 16.844 24.399 16.714 24.531 16.292 24.61 15.946 24.637 15.828 24.684 15.627 24.715 15.5 24.746 15.373 24.781 15.149 24.793 15.002 24.815 14.741 24.818 14.733 24.969 14.58 25.057 14.49 25.136 14.372 25.156 14.301 25.269 13.896 25.087 13.501 24.726 13.364 24.512 13.283 24.448 13.286 24.281 13.383 24.175 13.445 24.124 13.506 24.067 13.639 23.999 13.796 23.996 13.83 24.031 13.963 24.084 14.162 24.169 14.301 24.267 14.351 24.375 14.405 24.611 14.404 24.658 14.348 24.725 14.267 24.738 14.112 24.682 14.065 24.637 14.028 24.625 14.034 24.597 14.107 24.53 14.284 24.297 14.246 24.213 14.044 24.134 13.856 24.165 13.705 24.316 13.546 24.437 13.418 24.677 13.457 24.853 13.633 25.133 13.913 25.112 14.366 24.812 14.543 24.523 14.712 24.147 14.622 23.815 14.305 23.559 14.061 23.493 13.89 23.49 13.467 23.488 13.16 23.498 13.101 23.57 12.959 23.72 12.665 24.029 12.427 24.307 12.388 24.483 12.364 24.608 12.394 24.53 12.442 24.504 12.458 24.408 12.481 24.316 12.493 24.224 12.506 24.105 12.54 24.05 12.57 23.953 12.622 23.958 12.623 24.344 12.647 24.56 12.66 24.817 12.696 24.915 12.726 25.222 12.823 25.467 13.09 25.61 13.484 25.658 13.616 25.67 13.747 25.669 14.145 25.668 14.63 25.666 14.648 25.545 15 25.405 15.406 25.213 15.796 24.995 16.112 24.913 16.23 24.838 16.334 24.829 16.343 24.819 16.352 24.769 16.419 24.719 16.492 24.606 16.656 24.266 17.031 24.265 16.992ZM30.268 16.373C30.047 16.171 30.017 16.088 30.116 15.954 30.196 15.846 30.196 15.687 30.117 15.648 30.089 15.635 30.026 15.604 29.976 15.581 29.864 15.529 29.804 15.339 29.837 15.141 29.871 14.934 29.907 14.881 29.986 14.923 30.127 14.998 30.212 15.188 30.231 15.467 30.241 15.613 30.257 15.799 30.268 15.88 30.285 16.025 30.426 16.417 30.489 16.5 30.568 16.603 30.437 16.528 30.268 16.373ZM30.941 15.674C30.941 15.669 30.933 15.528 30.924 15.36 30.908 15.026 30.819 14.732 30.702 14.623 30.646 14.57 30.643 14.558 30.686 14.558 30.772 14.558 30.935 14.785 30.978 14.962 30.999 15.052 31.01 15.191 31.001 15.27 30.991 15.358 31.001 15.438 31.026 15.474 31.07 15.538 31.037 15.682 30.977 15.682 30.958 15.682 30.942 15.678 30.941 15.674ZM24.708 10.554C24.377 10.288 24.173 10.151 23.826 9.962 23.56 9.816 23.572 9.795 23.859 9.902 24.187 10.025 24.615 10.318 24.907 10.621 25.12 10.84 25.023 10.807 24.708 10.554ZM8.24 21.066C8.31 21.031 8.375 20.98 8.385 20.954 8.396 20.927 8.414 20.912 8.425 20.919 8.437 20.926 8.45 20.855 8.455 20.762 8.462 20.638 8.446 20.562 8.399 20.486 8.324 20.363 8.184 20.262 8.134 20.293 8.086 20.323 8.091 20.376 8.142 20.376 8.249 20.376 8.349 20.747 8.272 20.858 8.178 20.993 7.901 21.048 7.722 20.967 7.629 20.924 7.502 20.747 7.444 20.578 7.377 20.383 7.399 20.18 7.521 19.855 7.585 19.687 7.636 19.526 7.636 19.497 7.636 19.401 7.56 19.47 7.466 19.651 7.196 20.17 7.21 20.613 7.507 20.95 7.705 21.175 7.95 21.214 8.24 21.066ZM25.633 21.035C25.726 20.994 25.806 20.919 25.885 20.803L26.001 20.632 26.001 20.222C26.001 19.979 25.987 19.802 25.967 19.788 25.948 19.775 25.905 19.702 25.871 19.625 25.807 19.48 25.701 19.36 25.666 19.394 25.656 19.405 25.685 19.494 25.731 19.593 25.939 20.031 25.939 20.526 25.731 20.773 25.522 21.022 25.164 21.048 25.026 20.823 24.935 20.676 24.941 20.512 25.044 20.361 25.144 20.213 25.133 20.188 24.999 20.258 24.932 20.292 24.881 20.358 24.843 20.456 24.791 20.593 24.791 20.613 24.842 20.768 24.902 20.95 24.926 20.977 25.113 21.071 25.258 21.145 25.411 21.134 25.632 21.035ZM9.471 20.166C9.608 20.078 10.049 19.913 10.147 19.913 10.213 19.913 10.248 19.897 10.248 19.866 10.248 19.84 10.294 19.796 10.35 19.768 10.44 19.724 10.478 19.723 10.673 19.764 10.888 19.809 10.987 19.792 10.903 19.725 10.855 19.687 10.474 19.555 10.066 19.434 9.766 19.346 9.273 19.307 9.06 19.355 8.887 19.394 8.718 19.509 8.414 19.794 8.286 19.913 8.171 20.011 8.157 20.012 8.144 20.012 8.133 20.031 8.133 20.054 8.133 20.085 8.237 20.095 8.544 20.095L8.956 20.095 9.043 20.2 9.13 20.305 9.267 20.257C9.343 20.23 9.434 20.189 9.471 20.166ZM17.753 19.68C18.016 19.643 18.317 19.601 18.421 19.587 18.723 19.548 18.721 19.499 18.414 19.401 18.314 19.37 18.187 19.324 18.133 19.3 18.078 19.276 17.886 19.202 17.706 19.136 17.416 19.028 17.358 19.017 17.194 19.038 17.092 19.051 16.769 19.059 16.477 19.057 15.901 19.053 15.481 18.985 14.91 18.804 13.988 18.513 13.023 17.81 12.437 17.004 12.325 16.85 12.222 16.708 12.207 16.689 12.121 16.57 11.82 15.977 11.654 15.599 11.579 15.429 11.349 14.716 11.304 14.514 11.257 14.304 11.185 14.228 11.034 14.228 10.984 14.228 10.914 14.256 10.879 14.291 10.822 14.348 10.817 14.393 10.829 14.729 10.836 14.935 10.857 15.594 10.876 16.195 10.921 17.655 10.945 17.9 11.057 18.047 11.136 18.151 11.513 18.455 11.752 18.607 12.155 18.864 12.979 19.204 13.587 19.365 13.76 19.411 13.953 19.464 14.017 19.483 14.332 19.576 15.301 19.715 15.967 19.761 16.357 19.788 17.292 19.746 17.753 19.68ZM19.097 19.389C19.346 19.297 19.746 19.111 19.796 19.063 19.82 19.04 19.856 19.021 19.876 19.021 19.913 19.021 20.528 18.613 20.689 18.481 20.827 18.368 21.227 17.963 21.372 17.787 21.445 17.699 21.52 17.61 21.539 17.589 21.713 17.392 22.056 16.743 22.215 16.31 22.466 15.632 22.546 15.15 22.546 14.327 22.546 12.993 22.202 11.948 21.421 10.905 21.06 10.422 20.409 9.782 19.816 9.325 19.391 8.998 19.299 8.931 18.959 8.704 18.759 8.571 18.588 8.453 18.579 8.443 18.57 8.434 18.533 8.408 18.496 8.386 18.46 8.364 18.285 8.252 18.107 8.138 17.929 8.023 17.739 7.904 17.685 7.873 17.418 7.717 16.884 7.39 16.678 7.256 16.551 7.173 16.407 7.083 16.359 7.055 16.014 6.855 15.197 6.318 15.042 6.189 14.978 6.136 14.911 6.082 14.893 6.069 14.609 5.864 14.364 5.649 14.071 5.351 13.468 4.738 13.299 4.369 13.267 3.599 13.246 3.077 13.295 2.794 13.48 2.391 13.746 1.81 14.35 1.275 15.058 0.995 15.526 0.81 15.803 0.761 16.397 0.759 17.174 0.755 17.638 0.861 18.298 1.19 19.113 1.596 19.839 2.35 20.268 3.235 20.516 3.748 20.667 4.207 20.744 4.684 20.761 4.785 20.785 4.819 20.868 4.854 20.987 4.904 21.137 4.868 21.178 4.779 21.207 4.715 21.235 0.332 21.207 0.218 21.181 0.11 21.053 0.059 20.936 0.108 20.857 0.141 20.629 0.43 20.629 0.495 20.629 0.507 20.56 0.585 20.476 0.67L20.323 0.822 20.038 0.82C19.728 0.818 19.639 0.795 19.009 0.558 18.213 0.258 17.931 0.175 17.435 0.094 15.277-0.259 13.31 0.388 12.152 1.83 11.759 2.32 11.533 2.73 11.353 3.28 11.195 3.761 11.137 4.106 11.117 4.696 11.095 5.31 11.141 5.708 11.294 6.244 11.391 6.581 11.66 7.202 11.809 7.433 12.196 8.03 12.92 8.794 13.548 9.266 13.742 9.412 13.919 9.547 13.941 9.565 13.963 9.584 13.99 9.599 14.001 9.599 14.012 9.599 14.127 9.678 14.258 9.774 14.389 9.87 14.578 10.001 14.678 10.066 15.098 10.339 15.831 10.807 16.043 10.938 16.296 11.095 16.409 11.168 16.764 11.402 17.181 11.675 17.154 11.657 17.571 11.961 17.734 12.08 17.905 12.204 17.949 12.236 17.993 12.267 18.075 12.331 18.13 12.376 18.186 12.422 18.267 12.489 18.312 12.525 19.28 13.316 19.782 14.085 19.984 15.087 20.063 15.478 20.039 16.243 19.934 16.641 19.855 16.941 19.647 17.416 19.517 17.589 19.474 17.647 19.439 17.703 19.439 17.712 19.439 17.776 18.95 18.271 18.744 18.416 18.551 18.552 18.089 18.789 17.826 18.887 17.712 18.929 17.612 18.975 17.604 18.988 17.574 19.037 17.675 19.081 18.166 19.235 18.439 19.321 18.691 19.403 18.728 19.418 18.832 19.462 18.914 19.456 19.097 19.389ZM26.893 13.027C26.979 12.842 27.2 12.504 27.277 12.442 27.32 12.407 27.534 12.053 27.585 11.931 27.831 11.343 27.783 10.583 27.463 9.971 27.422 9.894 27.366 9.831 27.338 9.831 27.265 9.831 26.848 10.281 26.715 10.505 26.538 10.802 26.48 11.018 26.481 11.381 26.483 11.718 26.533 12.011 26.627 12.227 26.738 12.484 26.777 12.66 26.777 12.915 26.778 13.188 26.806 13.216 26.893 13.027ZM27.121 11.781C27.133 11.699 27.157 11.4 27.174 11.117 27.211 10.506 27.252 10.338 27.29 10.638 27.324 10.902 27.287 11.334 27.205 11.642 27.126 11.935 27.09 11.996 27.121 11.781ZM6.481 12.911C6.484 12.692 6.57 12.413 6.66 12.336 6.765 12.246 6.797 12.113 6.829 11.632 6.862 11.119 6.751 10.744 6.443 10.335 6.316 10.166 5.944 9.831 5.883 9.831 5.847 9.831 5.781 9.98 5.659 10.343 5.579 10.583 5.57 10.653 5.57 11.103 5.57 11.576 5.575 11.61 5.667 11.831 5.752 12.034 5.961 12.409 6.051 12.519 6.17 12.666 6.343 12.902 6.377 12.965 6.426 13.057 6.479 13.03 6.481 12.911ZM6.04 11.59C5.957 11.152 5.942 10.974 5.967 10.719 5.987 10.524 5.998 10.493 6.035 10.53 6.094 10.59 6.139 10.775 6.088 10.743 6.038 10.712 6.037 11.162 6.086 11.56 6.106 11.721 6.116 11.858 6.108 11.866 6.101 11.873 6.07 11.749 6.04 11.59ZM1.091 12.738C1.091 12.725 1.124 12.705 1.165 12.695 1.206 12.684 1.312 12.612 1.401 12.534 1.541 12.411 1.556 12.386 1.512 12.349 1.434 12.285 1.142 12.261 1.024 12.31 0.909 12.358 0.727 12.6 0.727 12.706 0.727 12.77 0.744 12.776 0.909 12.769 1.009 12.765 1.091 12.751 1.091 12.738ZM32.53 12.726C32.53 12.7 32.544 12.674 32.562 12.668 32.58 12.662 32.537 12.589 32.466 12.506 32.322 12.338 32.212 12.292 31.794 12.223 31.64 12.197 31.637 12.227 31.778 12.443 31.877 12.596 31.904 12.614 32.133 12.688 32.424 12.781 32.53 12.791 32.53 12.726ZM0.448 12.621C0.666 12.53 0.807 12.297 0.688 12.224 0.604 12.172 0.372 12.2 0.277 12.273 0.145 12.375 0 12.573 0 12.651 0 12.709 0.016 12.713 0.163 12.694 0.253 12.682 0.381 12.649 0.448 12.621ZM33.29 12.643C33.29 12.561 33.002 12.259 32.881 12.212 32.739 12.158 32.597 12.169 32.572 12.236 32.561 12.267 32.535 12.304 32.516 12.317 32.473 12.346 32.589 12.462 32.782 12.583 32.933 12.679 32.994 12.697 33.166 12.703 33.268 12.706 33.29 12.695 33.29 12.643ZM7.752 12.338C7.881 12.075 8.091 11.843 8.297 11.735 8.433 11.664 8.506 11.649 8.714 11.649 8.94 11.649 8.962 11.643 8.924 11.597 8.722 11.353 8.263 11.441 7.956 11.782 7.773 11.986 7.617 12.265 7.587 12.443 7.554 12.635 7.63 12.587 7.752 12.338ZM25.588 12.169C25.55 12.088 25.487 11.986 25.448 11.943 25.41 11.899 25.347 11.83 25.31 11.788 25.252 11.722 25.249 11.707 25.291 11.677 25.331 11.648 25.33 11.646 25.282 11.661 25.251 11.671 25.214 11.661 25.2 11.639 25.155 11.569 24.961 11.479 24.851 11.477 24.714 11.474 24.461 11.545 24.398 11.604 24.357 11.643 24.369 11.649 24.481 11.65 24.926 11.652 25.234 11.851 25.533 12.327 25.63 12.482 25.637 12.487 25.647 12.405 25.653 12.357 25.626 12.251 25.588 12.169ZM8.009 11.054C8.059 11.015 8.099 11.002 8.106 11.023 8.114 11.046 8.144 11.048 8.2 11.027 8.245 11.01 8.423 10.978 8.595 10.957 9.167 10.888 9.41 10.812 9.752 10.597 9.894 10.508 10.264 10.212 10.38 10.095 10.415 10.06 10.678 9.888 10.783 9.832 10.964 9.735 10.948 9.715 10.508 9.498 10.38 9.434 10.027 9.364 9.823 9.361 9.553 9.357 9.238 9.451 8.908 9.633 8.634 9.784 8.439 9.98 8.312 10.232 8.263 10.33 8.143 10.545 8.046 10.712 7.822 11.093 7.809 11.211 8.009 11.054ZM8.184 10.85C8.267 10.708 8.566 10.405 8.771 10.253 9.058 10.041 9.226 9.948 9.475 9.862 9.804 9.749 9.772 9.792 9.378 9.991 8.987 10.19 8.693 10.401 8.43 10.673 8.275 10.834 8.134 10.935 8.184 10.85ZM8.233 9.719C8.253 9.644 8.276 9.557 8.285 9.525 8.296 9.488 8.335 9.467 8.392 9.467 8.604 9.467 8.769 9.214 8.769 8.888 8.769 8.676 8.695 8.475 8.616 8.475 8.592 8.475 8.544 8.531 8.509 8.599 8.475 8.667 8.438 8.731 8.428 8.74 8.397 8.768 8.273 9.082 8.25 9.192 8.237 9.25 8.206 9.315 8.18 9.337 8.154 9.358 8.132 9.422 8.132 9.479 8.131 9.536 8.116 9.647 8.098 9.725 8.038 9.986 8.166 9.98 8.233 9.719ZM25.124 9.459C25.054 9.365 25.053 9.349 25.093 9.181 25.126 9.041 25.158 8.989 25.238 8.94 25.295 8.904 25.372 8.842 25.411 8.799 25.621 8.572 25.694 7.781 25.505 7.781 25.381 7.781 25.147 7.973 25.055 8.151 24.986 8.287 24.969 8.64 25.025 8.787 25.057 8.872 25.036 9.07 24.996 9.07 24.984 9.07 24.933 8.977 24.884 8.863 24.796 8.662 24.658 8.475 24.596 8.475 24.51 8.475 24.469 8.92 24.533 9.151 24.578 9.314 24.758 9.5 24.869 9.5 25.032 9.5 25.158 9.541 25.16 9.595 25.162 9.634 25.168 9.637 25.181 9.604 25.19 9.58 25.165 9.515 25.124 9.459ZM25.993 9.476C26.137 9.341 26.23 9.178 26.292 8.952 26.36 8.709 26.366 8.39 26.305 8.367 26.229 8.338 25.907 8.52 25.747 8.681 25.565 8.866 25.44 9.155 25.474 9.315 25.486 9.371 25.535 9.46 25.583 9.511 25.655 9.589 25.689 9.602 25.783 9.587 25.845 9.577 25.939 9.527 25.993 9.476ZM7.927 8.859C7.977 8.834 8.059 8.814 8.111 8.814 8.238 8.814 8.264 8.763 8.264 8.505 8.265 8.175 8.142 7.965 7.878 7.844 7.711 7.768 7.65 7.786 7.624 7.919 7.593 8.072 7.599 8.502 7.632 8.522 7.648 8.532 7.67 8.585 7.681 8.64 7.7 8.733 7.792 8.905 7.824 8.905 7.832 8.905 7.878 8.884 7.927 8.859Z" fill-rule="evenodd"></path><g transform="matrix(0.237032,0,0,0.237032,297.393776,140.48698)" stroke="none" fill="#000000"><path transform="matrix(1,0,0,1,0,1.13687e-13)" stroke="none" fill="#000000" d="M1.17 -1.4Q2.26 -1.6 2.63 -2.03Q3 -2.46 3 -3.53L3 -13.36Q3 -14.15 2.82 -14.41Q2.64 -14.68 2.08 -14.68L1.32 -14.66L1.19 -14.86L1.37 -16.33L4.39 -16.31Q5.38 -16.31 8.18 -16.48L8.03 -14.81Q7.37 -14.71 7.07 -14.54Q6.78 -14.38 6.67 -14.05Q6.55 -13.72 6.5 -12.98L6.35 -9.32L9.68 -9.27Q11 -9.27 12.7 -9.45L12.7 -13.36Q12.7 -14.15 12.52 -14.41Q12.34 -14.68 11.79 -14.68L11 -14.66L10.87 -14.86L11.07 -16.33L14.27 -16.31Q15.11 -16.31 17.96 -16.48L17.83 -14.83Q16.89 -14.71 16.6 -14.44Q16.31 -14.17 16.26 -13.44Q16.13 -11.2 16.04 -8.31Q15.95 -5.41 15.95 -3.45Q15.95 -2.39 16.17 -2.01Q16.38 -1.63 16.99 -1.63Q17.27 -1.63 17.96 -1.7L18.06 -1.52L17.83 0.08Q17.48 0.08 17.3 0.05Q15.37 0 14.17 0L10.67 0.05L10.87 -1.57Q11.61 -1.6 12 -1.8Q12.4 -2.01 12.55 -2.5Q12.7 -3 12.7 -3.94L12.7 -7.21L9.91 -7.24Q9.35 -7.24 8.38 -7.16Q7.42 -7.09 6.3 -6.98L6.22 -3.35Q6.22 -2.31 6.43 -1.96Q6.63 -1.6 7.21 -1.6Q7.47 -1.6 8.15 -1.68L8.28 -1.52L8.05 0.08Q6.22 0 5 0Q4.14 0 2.88 0.08Q1.63 0.15 0.99 0.23Z" fill-rule="nonzero"></path>
<path transform="matrix(1,0,0,1,18.9738,1.13687e-13)" stroke="none" fill="#000000" fill-rule="nonzero"></path>
<path transform="matrix(1,0,0,1,23.3934,1.13687e-13)" stroke="none" fill="#000000" d="M14.15 -4.8Q13.74 -2.82 13.46 -0.1L13.21 0.18Q8.36 0 5.31 0Q3.18 0 0.97 0.25L1.14 -1.45Q2.21 -1.6 2.59 -2.06Q2.97 -2.51 2.97 -3.63L3 -13.31Q3 -14.15 2.84 -14.41Q2.69 -14.68 2.18 -14.68Q1.85 -14.68 1.4 -14.63L1.24 -14.86L1.45 -16.38L1.96 -16.38Q3.76 -16.31 6.05 -16.31Q11.71 -16.31 13.77 -16.61L13.97 -16.33Q13.77 -15.39 13.6 -14.1Q13.44 -12.8 13.39 -11.73L11.13 -11.58L11.18 -12.6Q11.18 -13.36 10.96 -13.68Q10.74 -14 10.1 -14.11Q9.45 -14.22 7.92 -14.22Q7.26 -14.22 7.01 -14.17Q6.76 -14.12 6.67 -13.94Q6.58 -13.77 6.55 -13.36L6.38 -9.37L8.76 -9.35Q9.3 -9.35 10.1 -9.41Q10.9 -9.47 11.71 -9.58L11.91 -9.35L11.56 -7.19Q11.23 -7.19 11.05 -7.21Q9.27 -7.26 8.23 -7.26Q7.44 -7.26 6.27 -7.11L6.22 -3.48Q6.22 -2.77 6.34 -2.46Q6.45 -2.16 6.77 -2.06Q7.09 -1.96 7.87 -1.96Q9.55 -1.96 10.3 -2.15Q11.05 -2.34 11.38 -2.92Q11.71 -3.51 11.89 -4.85L13.97 -5.03Z" fill-rule="nonzero"></path>
<path transform="matrix(1,0,0,1,38.5318,1.13687e-13)" stroke="none" fill="#000000" fill-rule="nonzero"></path>
<path transform="matrix(1,0,0,1,42.9514,1.13687e-13)" stroke="none" fill="#000000" d="M8.41 0L8.53 -1.5Q9.4 -1.57 9.79 -1.66Q10.19 -1.75 10.34 -1.92Q10.49 -2.08 10.49 -2.41Q10.49 -2.72 10.36 -3.3L9.83 -5.26Q8.51 -5.31 7.49 -5.31Q7.04 -5.31 5.59 -5.18L5.05 -5.13L4.42 -3.17Q4.27 -2.62 4.27 -2.39Q4.27 -1.93 4.53 -1.75Q4.8 -1.57 5.46 -1.57L6.55 -1.57L6.68 -1.4L6.5 0.15Q6.15 0.13 4.98 0.06Q3.81 0 2.79 0Q1.73 0 0.88 0.03Q0.03 0.05 -0.25 0.08L-0.08 -1.57Q0.51 -1.68 0.89 -2.06Q1.27 -2.44 1.6 -3.3L6.15 -16.18L10.03 -16.59L10.31 -16.46Q10.69 -15.01 11.9 -10.53Q13.11 -6.05 13.97 -3.33Q14.25 -2.41 14.68 -2.03Q15.11 -1.65 15.98 -1.57L16.08 -1.4L15.9 0.08Q15.57 0.05 14.66 0.03Q13.74 0 12.8 0Q11.46 0 10.17 0.09Q8.89 0.18 8.53 0.2ZM7.49 -7.26Q7.77 -7.26 9.37 -7.34L7.87 -13L7.54 -13L5.66 -7.26Z" fill-rule="nonzero"></path>
<path transform="matrix(1,0,0,1,58.8264,1.13687e-13)" stroke="none" fill="#000000" fill-rule="nonzero"></path>
<path transform="matrix(1,0,0,1,63.246,1.13687e-13)" stroke="none" fill="#000000" d="M8.08 0.3Q7.67 0.25 6.41 0.13Q5.16 0 4.24 0Q3.4 0 2.36 0.1Q1.32 0.2 1.02 0.25L1.17 -1.45Q2.26 -1.63 2.64 -2.08Q3.02 -2.54 3.02 -3.61L3.02 -13.28Q3.02 -14.1 2.87 -14.38Q2.72 -14.66 2.24 -14.66Q1.96 -14.66 1.7 -14.63Q1.45 -14.6 1.37 -14.6L1.24 -14.83L1.45 -16.38Q1.8 -16.38 2.77 -16.34Q3.73 -16.31 4.65 -16.31Q5.77 -16.31 6.99 -16.34Q8.2 -16.38 8.66 -16.41Q11.2 -16.41 13.06 -15.49Q14.91 -14.58 15.9 -12.88Q16.89 -11.18 16.89 -8.81Q16.89 -6.17 15.76 -4.09Q14.63 -2.01 12.62 -0.85Q10.62 0.3 8.08 0.3ZM7.29 -14.27Q6.88 -14.27 6.73 -14.15Q6.58 -14.02 6.55 -13.67Q6.22 -6.58 6.22 -3.68Q6.22 -2.92 6.4 -2.53Q6.58 -2.13 7.05 -1.98Q7.52 -1.83 8.41 -1.83Q10.64 -1.83 11.82 -3.4Q13 -4.98 13 -8.03Q13 -11.25 11.6 -12.76Q10.19 -14.27 7.29 -14.27Z" fill-rule="nonzero"></path>
<path transform="matrix(1,0,0,1,80.8736,1.13687e-13)" stroke="none" fill="#000000" fill-rule="nonzero"></path>
<path transform="matrix(1,0,0,1,85.2932,1.13687e-13)" stroke="none" fill="#000000" fill-rule="nonzero"></path>
<path transform="matrix(1,0,0,1,89.7128,1.13687e-13)" stroke="none" fill="#000000" d="M5.59 0.3Q4.42 0.3 3.43 0.09Q2.44 -0.13 1.79 -0.38Q1.14 -0.63 1.14 -0.66L0.94 -1.02Q0.97 -1.19 1.05 -1.79Q1.14 -2.39 1.24 -3.39Q1.35 -4.39 1.35 -5.33L3.43 -5.49Q3.43 -4.06 3.68 -3.3Q3.94 -2.54 4.53 -2.22Q5.13 -1.9 6.25 -1.9Q7.47 -1.9 8.2 -2.44Q8.94 -2.97 8.94 -3.91Q8.94 -4.75 8.17 -5.33Q7.39 -5.92 5.77 -6.71Q5.66 -6.76 5.18 -6.98Q3.28 -7.9 2.21 -8.92Q1.14 -9.93 1.14 -11.56Q1.14 -13 2.01 -14.16Q2.87 -15.32 4.41 -15.96Q5.94 -16.61 7.9 -16.61Q9.02 -16.61 9.97 -16.46Q10.92 -16.31 11.49 -16.14Q12.07 -15.98 12.22 -15.93L12.4 -15.6Q12.37 -15.44 12.24 -14.82Q12.12 -14.2 11.99 -13.23Q11.86 -12.27 11.79 -11.25L9.91 -11.1L9.68 -11.25Q9.68 -11.33 9.7 -11.57Q9.73 -11.81 9.73 -12.17Q9.73 -13.31 9.16 -13.79Q8.59 -14.27 7.24 -14.27Q6.15 -14.27 5.45 -13.75Q4.75 -13.23 4.75 -12.42Q4.75 -11.81 5.19 -11.32Q5.64 -10.82 6.26 -10.46Q6.88 -10.11 8.08 -9.52Q9.5 -8.84 10.43 -8.28Q11.35 -7.72 11.99 -6.86Q12.62 -5.99 12.62 -4.8Q12.62 -3.28 11.75 -2.12Q10.87 -0.97 9.28 -0.33Q7.7 0.3 5.59 0.3Z" fill-rule="nonzero"></path>
<path transform="matrix(1,0,0,1,103.4034,1.13687e-13)" stroke="none" fill="#000000" fill-rule="nonzero"></path>
<path transform="matrix(1,0,0,1,107.823,1.13687e-13)" stroke="none" fill="#000000" d="M1.24 -1.47Q2.29 -1.65 2.64 -2.08Q3 -2.51 3 -3.61L3 -13.31Q3 -14.12 2.83 -14.4Q2.67 -14.68 2.18 -14.68Q1.91 -14.68 1.65 -14.66Q1.4 -14.63 1.32 -14.63L1.17 -14.83L1.37 -16.33L4.57 -16.31Q5.54 -16.31 6.72 -16.34Q7.9 -16.38 8.38 -16.41Q11.63 -16.41 13.06 -15.04Q14.48 -13.67 14.48 -11.56Q14.48 -10.06 13.63 -8.72Q12.78 -7.39 11.38 -6.59Q9.98 -5.79 8.41 -5.79L6.27 -5.79L6.22 -3.86Q6.22 -2.87 6.31 -2.41Q6.4 -1.96 6.64 -1.79Q6.88 -1.63 7.42 -1.63Q7.77 -1.63 8.1 -1.65Q8.43 -1.68 8.56 -1.68L8.64 -1.55L8.41 0.08Q8.05 0.08 7.1 0.04Q6.15 0 5.26 0Q4.39 0 2.96 0.08Q1.52 0.15 1.04 0.2ZM8.59 -7.7Q10.95 -8.2 10.95 -11.18Q10.95 -12.8 10.03 -13.55Q9.12 -14.3 7.14 -14.3Q6.78 -14.3 6.69 -14.24Q6.6 -14.17 6.58 -13.87Q6.43 -11.58 6.32 -8.03L8.59 -7.7Z" fill-rule="nonzero"></path>
<path transform="matrix(1,0,0,1,122.4534,1.13687e-13)" stroke="none" fill="#000000" fill-rule="nonzero"></path>
<path transform="matrix(1,0,0,1,126.873,1.13687e-13)" stroke="none" fill="#000000" d="M8.41 0L8.53 -1.5Q9.4 -1.57 9.79 -1.66Q10.19 -1.75 10.34 -1.92Q10.49 -2.08 10.49 -2.41Q10.49 -2.72 10.36 -3.3L9.83 -5.26Q8.51 -5.31 7.49 -5.31Q7.04 -5.31 5.59 -5.18L5.05 -5.13L4.42 -3.17Q4.27 -2.62 4.27 -2.39Q4.27 -1.93 4.53 -1.75Q4.8 -1.57 5.46 -1.57L6.55 -1.57L6.68 -1.4L6.5 0.15Q6.15 0.13 4.98 0.06Q3.81 0 2.79 0Q1.73 0 0.88 0.03Q0.03 0.05 -0.25 0.08L-0.08 -1.57Q0.51 -1.68 0.89 -2.06Q1.27 -2.44 1.6 -3.3L6.15 -16.18L10.03 -16.59L10.31 -16.46Q10.69 -15.01 11.9 -10.53Q13.11 -6.05 13.97 -3.33Q14.25 -2.41 14.68 -2.03Q15.11 -1.65 15.98 -1.57L16.08 -1.4L15.9 0.08Q15.57 0.05 14.66 0.03Q13.74 0 12.8 0Q11.46 0 10.17 0.09Q8.89 0.18 8.53 0.2ZM7.49 -7.26Q7.77 -7.26 9.37 -7.34L7.87 -13L7.54 -13L5.66 -7.26Z" fill-rule="nonzero"></path></g><g transform="matrix(0.123927,0,0,0.139693,303.470367,143.751781)" stroke="none" fill="#000000"><path transform="matrix(1,0,0,1,0,0)" stroke="none" fill="#000000" d="M13.06 0.41Q11.4 0.41 10.29 -1.96L8.08 -6.43L6.27 -6.43L6.22 -3.56Q6.22 -2.67 6.35 -2.27Q6.48 -1.88 6.83 -1.75Q7.19 -1.63 8.05 -1.6L8.13 -1.45L7.9 0.1Q7.44 0.08 6.3 0.05Q5.16 0.03 4.19 0.03Q3.25 0.03 2.26 0.08Q1.27 0.13 0.97 0.15L1.19 -1.52Q2.26 -1.65 2.63 -2.08Q3 -2.51 3 -3.61L3 -13.44Q3 -14.17 2.83 -14.43Q2.67 -14.68 2.18 -14.68Q1.91 -14.68 1.65 -14.66Q1.4 -14.63 1.32 -14.63L1.17 -14.83L1.4 -16.36Q1.75 -16.36 2.71 -16.33Q3.66 -16.31 4.57 -16.31Q5.59 -16.31 6.77 -16.34Q7.95 -16.38 8.41 -16.41Q11.3 -16.41 12.84 -15.29Q14.38 -14.17 14.38 -12.06Q14.38 -10.57 13.49 -9.32Q12.6 -8.08 10.95 -7.24L13.18 -3.61Q13.89 -2.44 14.55 -1.93Q15.21 -1.42 16.03 -1.42L16.21 -1.19L16.03 0.13L13.06 0.41ZM8.64 -8.38Q9.47 -8.74 10.16 -9.44Q10.85 -10.13 10.85 -11.61Q10.85 -13 9.91 -13.69Q8.97 -14.38 7.01 -14.38Q6.76 -14.38 6.67 -14.27Q6.58 -14.17 6.55 -13.82Q6.4 -11.2 6.35 -8.64L8.64 -8.38Z" fill-rule="nonzero"></path>
<path transform="matrix(1,0,0,1,16.2814,0)" stroke="none" fill="#000000" fill-rule="nonzero"></path>
<path transform="matrix(1,0,0,1,20.701,0)" stroke="none" fill="#000000" d="M14.15 -4.8Q13.74 -2.82 13.46 -0.1L13.21 0.18Q8.36 0 5.31 0Q3.18 0 0.97 0.25L1.14 -1.45Q2.21 -1.6 2.59 -2.06Q2.97 -2.51 2.97 -3.63L3 -13.31Q3 -14.15 2.84 -14.41Q2.69 -14.68 2.18 -14.68Q1.85 -14.68 1.4 -14.63L1.24 -14.86L1.45 -16.38L1.96 -16.38Q3.76 -16.31 6.05 -16.31Q11.71 -16.31 13.77 -16.61L13.97 -16.33Q13.77 -15.39 13.6 -14.1Q13.44 -12.8 13.39 -11.73L11.13 -11.58L11.18 -12.6Q11.18 -13.36 10.96 -13.68Q10.74 -14 10.1 -14.11Q9.45 -14.22 7.92 -14.22Q7.26 -14.22 7.01 -14.17Q6.76 -14.12 6.67 -13.94Q6.58 -13.77 6.55 -13.36L6.38 -9.37L8.76 -9.35Q9.3 -9.35 10.1 -9.41Q10.9 -9.47 11.71 -9.58L11.91 -9.35L11.56 -7.19Q11.23 -7.19 11.05 -7.21Q9.27 -7.26 8.23 -7.26Q7.44 -7.26 6.27 -7.11L6.22 -3.48Q6.22 -2.77 6.34 -2.46Q6.45 -2.16 6.77 -2.06Q7.09 -1.96 7.87 -1.96Q9.55 -1.96 10.3 -2.15Q11.05 -2.34 11.38 -2.92Q11.71 -3.51 11.89 -4.85L13.97 -5.03Z" fill-rule="nonzero"></path>
<path transform="matrix(1,0,0,1,35.8394,0)" stroke="none" fill="#000000" fill-rule="nonzero"></path>
<path transform="matrix(1,0,0,1,40.259,0)" stroke="none" fill="#000000" d="M1.3 -1.45Q2.26 -1.6 2.62 -2.06Q2.97 -2.51 2.97 -3.63L3 -13.36Q3 -14.15 2.82 -14.41Q2.64 -14.68 2.08 -14.68L1.3 -14.66L1.17 -14.86L1.37 -16.33L4.78 -16.31Q5.49 -16.31 6.85 -16.38Q8.2 -16.46 8.64 -16.48L8.46 -14.73Q7.59 -14.63 7.2 -14.44Q6.81 -14.25 6.69 -13.91Q6.58 -13.56 6.53 -12.83Q6.25 -9.02 6.25 -3.51Q6.25 -2.82 6.38 -2.5Q6.5 -2.18 6.83 -2.07Q7.16 -1.96 7.85 -1.96Q9.12 -1.96 9.74 -2.24Q10.36 -2.51 10.67 -3.3Q10.97 -4.09 11.18 -5.79L13.23 -6.02L13.41 -5.77Q13.34 -5.28 13.12 -3.59Q12.9 -1.9 12.75 -0.05L12.5 0.2Q11.81 0.18 9.53 0.09Q7.24 0 5.38 0Q3.99 0 2.72 0.1Q1.45 0.2 1.09 0.25Z" fill-rule="nonzero"></path>
<path transform="matrix(1,0,0,1,53.721,0)" stroke="none" fill="#000000" fill-rule="nonzero"></path>
<path transform="matrix(1,0,0,1,58.1406,0)" stroke="none" fill="#000000" d="M8.41 0L8.53 -1.5Q9.4 -1.57 9.79 -1.66Q10.19 -1.75 10.34 -1.92Q10.49 -2.08 10.49 -2.41Q10.49 -2.72 10.36 -3.3L9.83 -5.26Q8.51 -5.31 7.49 -5.31Q7.04 -5.31 5.59 -5.18L5.05 -5.13L4.42 -3.17Q4.27 -2.62 4.27 -2.39Q4.27 -1.93 4.53 -1.75Q4.8 -1.57 5.46 -1.57L6.55 -1.57L6.68 -1.4L6.5 0.15Q6.15 0.13 4.98 0.06Q3.81 0 2.79 0Q1.73 0 0.88 0.03Q0.03 0.05 -0.25 0.08L-0.08 -1.57Q0.51 -1.68 0.89 -2.06Q1.27 -2.44 1.6 -3.3L6.15 -16.18L10.03 -16.59L10.31 -16.46Q10.69 -15.01 11.9 -10.53Q13.11 -6.05 13.97 -3.33Q14.25 -2.41 14.68 -2.03Q15.11 -1.65 15.98 -1.57L16.08 -1.4L15.9 0.08Q15.57 0.05 14.66 0.03Q13.74 0 12.8 0Q11.46 0 10.17 0.09Q8.89 0.18 8.53 0.2ZM7.49 -7.26Q7.77 -7.26 9.37 -7.34L7.87 -13L7.54 -13L5.66 -7.26Z" fill-rule="nonzero"></path>
<path transform="matrix(1,0,0,1,74.0156,0)" stroke="none" fill="#000000" fill-rule="nonzero"></path>
<path transform="matrix(1,0,0,1,78.4352,0)" stroke="none" fill="#000000" d="M8.97 0L9.09 -1.52Q9.83 -1.57 10.17 -1.73Q10.52 -1.88 10.52 -2.24Q10.52 -2.59 10.11 -3.15L7.9 -6.45L6.17 -4.04Q5.66 -3.35 5.47 -2.97Q5.28 -2.59 5.28 -2.34Q5.28 -1.96 5.58 -1.78Q5.87 -1.6 6.53 -1.57L6.63 -1.37L6.48 0.15Q6.1 0.13 4.93 0.05Q3.76 -0.03 3.2 -0.03Q2.59 -0.03 1.59 0.03Q0.58 0.08 0.28 0.1L0.18 -0.15L0.36 -1.65Q1.85 -2.16 4.04 -5.05L6.58 -8.41L3.84 -12.52Q3.15 -13.54 2.41 -13.98Q1.68 -14.43 0.56 -14.63L0.46 -14.76L0.66 -16.36Q1.02 -16.36 2.15 -16.33Q3.28 -16.31 4.67 -16.31Q5.66 -16.31 6.91 -16.38Q8.15 -16.46 8.53 -16.48L8.66 -16.26L8.53 -14.83Q7.72 -14.78 7.35 -14.59Q6.99 -14.4 6.99 -14.05Q6.99 -13.72 7.51 -12.87Q8.03 -12.01 9.3 -10.11Q9.27 -10.08 10.08 -11.25Q10.92 -12.45 11.37 -13.16Q11.81 -13.87 11.81 -14.15Q11.81 -14.48 11.53 -14.63Q11.25 -14.78 10.57 -14.81L10.52 -14.94L10.67 -16.38L11.86 -16.36Q13.23 -16.31 14 -16.31Q14.94 -16.31 15.74 -16.33Q16.54 -16.36 16.81 -16.38L16.92 -16.21L16.76 -14.68Q15.65 -14.3 14.99 -13.75Q14.33 -13.21 13.41 -11.99L10.64 -8.18L13.69 -3.81Q14.43 -2.74 15.19 -2.25Q15.95 -1.75 17.02 -1.68L17.09 -1.57L16.89 0.05Q16.54 0.05 15.56 0.01Q14.58 -0.03 13.61 -0.03Q12.8 -0.03 11.2 0.06Q9.6 0.15 9.09 0.18Z" fill-rule="nonzero"></path>
<path transform="matrix(1,0,0,1,95.7326,0)" stroke="none" fill="#000000" fill-rule="nonzero"></path>
<path transform="matrix(1,0,0,1,100.1522,0)" stroke="none" fill="#000000" fill-rule="nonzero"></path>
<path transform="matrix(1,0,0,1,104.5718,0)" stroke="none" fill="#000000" fill-rule="nonzero"></path>
<path transform="matrix(1,0,0,1,108.9914,0)" stroke="none" fill="#000000" d="M5.59 0.3Q4.42 0.3 3.43 0.09Q2.44 -0.13 1.79 -0.38Q1.14 -0.63 1.14 -0.66L0.94 -1.02Q0.97 -1.19 1.05 -1.79Q1.14 -2.39 1.24 -3.39Q1.35 -4.39 1.35 -5.33L3.43 -5.49Q3.43 -4.06 3.68 -3.3Q3.94 -2.54 4.53 -2.22Q5.13 -1.9 6.25 -1.9Q7.47 -1.9 8.2 -2.44Q8.94 -2.97 8.94 -3.91Q8.94 -4.75 8.17 -5.33Q7.39 -5.92 5.77 -6.71Q5.66 -6.76 5.18 -6.98Q3.28 -7.9 2.21 -8.92Q1.14 -9.93 1.14 -11.56Q1.14 -13 2.01 -14.16Q2.87 -15.32 4.41 -15.96Q5.94 -16.61 7.9 -16.61Q9.02 -16.61 9.97 -16.46Q10.92 -16.31 11.49 -16.14Q12.07 -15.98 12.22 -15.93L12.4 -15.6Q12.37 -15.44 12.24 -14.82Q12.12 -14.2 11.99 -13.23Q11.86 -12.27 11.79 -11.25L9.91 -11.1L9.68 -11.25Q9.68 -11.33 9.7 -11.57Q9.73 -11.81 9.73 -12.17Q9.73 -13.31 9.16 -13.79Q8.59 -14.27 7.24 -14.27Q6.15 -14.27 5.45 -13.75Q4.75 -13.23 4.75 -12.42Q4.75 -11.81 5.19 -11.32Q5.64 -10.82 6.26 -10.46Q6.88 -10.11 8.08 -9.52Q9.5 -8.84 10.43 -8.28Q11.35 -7.72 11.99 -6.86Q12.62 -5.99 12.62 -4.8Q12.62 -3.28 11.75 -2.12Q10.87 -0.97 9.28 -0.33Q7.7 0.3 5.59 0.3Z" fill-rule="nonzero"></path>
<path transform="matrix(1,0,0,1,122.682,0)" stroke="none" fill="#000000" fill-rule="nonzero"></path>
<path transform="matrix(1,0,0,1,127.1016,0)" stroke="none" fill="#000000" d="M8.41 0L8.53 -1.5Q9.4 -1.57 9.79 -1.66Q10.19 -1.75 10.34 -1.92Q10.49 -2.08 10.49 -2.41Q10.49 -2.72 10.36 -3.3L9.83 -5.26Q8.51 -5.31 7.49 -5.31Q7.04 -5.31 5.59 -5.18L5.05 -5.13L4.42 -3.17Q4.27 -2.62 4.27 -2.39Q4.27 -1.93 4.53 -1.75Q4.8 -1.57 5.46 -1.57L6.55 -1.57L6.68 -1.4L6.5 0.15Q6.15 0.13 4.98 0.06Q3.81 0 2.79 0Q1.73 0 0.88 0.03Q0.03 0.05 -0.25 0.08L-0.08 -1.57Q0.51 -1.68 0.89 -2.06Q1.27 -2.44 1.6 -3.3L6.15 -16.18L10.03 -16.59L10.31 -16.46Q10.69 -15.01 11.9 -10.53Q13.11 -6.05 13.97 -3.33Q14.25 -2.41 14.68 -2.03Q15.11 -1.65 15.98 -1.57L16.08 -1.4L15.9 0.08Q15.57 0.05 14.66 0.03Q13.74 0 12.8 0Q11.46 0 10.17 0.09Q8.89 0.18 8.53 0.2ZM7.49 -7.26Q7.77 -7.26 9.37 -7.34L7.87 -13L7.54 -13L5.66 -7.26Z" fill-rule="nonzero"></path>
<path transform="matrix(1,0,0,1,142.9766,0)" stroke="none" fill="#000000" fill-rule="nonzero"></path>
<path transform="matrix(1,0,0,1,147.3962,0)" stroke="none" fill="#000000" d="M1.3 -1.45Q2.26 -1.6 2.62 -2.06Q2.97 -2.51 2.97 -3.63L3 -13.36Q3 -14.15 2.82 -14.41Q2.64 -14.68 2.08 -14.68L1.3 -14.66L1.17 -14.86L1.37 -16.33L4.78 -16.31Q5.49 -16.31 6.85 -16.38Q8.2 -16.46 8.64 -16.48L8.46 -14.73Q7.59 -14.63 7.2 -14.44Q6.81 -14.25 6.69 -13.91Q6.58 -13.56 6.53 -12.83Q6.25 -9.02 6.25 -3.51Q6.25 -2.82 6.38 -2.5Q6.5 -2.18 6.83 -2.07Q7.16 -1.96 7.85 -1.96Q9.12 -1.96 9.74 -2.24Q10.36 -2.51 10.67 -3.3Q10.97 -4.09 11.18 -5.79L13.23 -6.02L13.41 -5.77Q13.34 -5.28 13.12 -3.59Q12.9 -1.9 12.75 -0.05L12.5 0.2Q11.81 0.18 9.53 0.09Q7.24 0 5.38 0Q3.99 0 2.72 0.1Q1.45 0.2 1.09 0.25Z" fill-rule="nonzero"></path>
<path transform="matrix(1,0,0,1,160.8582,0)" stroke="none" fill="#000000" fill-rule="nonzero"></path>
<path transform="matrix(1,0,0,1,165.2778,0)" stroke="none" fill="#000000" d="M8 0.3Q5.77 0.3 4.13 -0.67Q2.49 -1.65 1.61 -3.45Q0.74 -5.26 0.74 -7.72Q0.74 -10.36 1.78 -12.37Q2.82 -14.38 4.71 -15.49Q6.6 -16.61 9.07 -16.61Q11.35 -16.61 13.02 -15.66Q14.68 -14.71 15.56 -12.92Q16.43 -11.13 16.43 -8.66Q16.43 -6.02 15.38 -3.98Q14.33 -1.93 12.41 -0.81Q10.49 0.3 8 0.3ZM8.66 -1.85Q10.49 -1.85 11.52 -3.29Q12.55 -4.72 12.55 -7.34Q12.55 -10.67 11.46 -12.43Q10.36 -14.2 8.36 -14.2Q6.55 -14.2 5.55 -12.76Q4.55 -11.33 4.55 -8.71Q4.55 -5.38 5.63 -3.62Q6.71 -1.85 8.66 -1.85Z" fill-rule="nonzero"></path>
<path transform="matrix(1,0,0,1,182.4228,0)" stroke="none" fill="#000000" fill-rule="nonzero"></path>
<path transform="matrix(1,0,0,1,186.8424,0)" stroke="none" fill="#000000" d="M13.39 0.69Q10.9 -3.28 8.37 -7.04Q5.84 -10.79 5.84 -10.74L5.61 -10.74L5.59 -2.74Q5.59 -2.08 5.78 -1.84Q5.97 -1.6 6.45 -1.6L7.57 -1.65L7.7 -1.5L7.44 0.1Q7.09 0.08 6.12 0.04Q5.16 0 4.19 0Q3.35 0 2.39 0.09Q1.42 0.18 1.14 0.2L1.32 -1.47Q2.11 -1.57 2.46 -1.94Q2.82 -2.31 2.84 -3.07L3.15 -13.16Q3.15 -13.97 2.74 -14.3Q2.34 -14.63 1.09 -14.76L0.91 -14.99L1.09 -16.43Q1.37 -16.41 2.29 -16.36Q3.2 -16.31 3.99 -16.31Q4.65 -16.31 5.4 -16.34Q6.15 -16.38 6.38 -16.41Q8.46 -13 10.86 -9.4Q13.26 -5.79 13.26 -5.84L13.51 -5.84L13.46 -13.59Q13.44 -14.17 13.25 -14.43Q13.06 -14.68 12.62 -14.68L11.73 -14.66L11.66 -14.83L11.84 -16.41Q12.19 -16.38 13.14 -16.34Q14.1 -16.31 15.06 -16.31Q15.82 -16.31 16.78 -16.36Q17.73 -16.41 18.03 -16.43L17.91 -14.76Q17.04 -14.63 16.68 -14.27Q16.31 -13.92 16.28 -13.16L15.95 0.36L13.39 0.69Z" fill-rule="nonzero"></path></g><g transform="matrix(0.129514,0,0,0.129514,299.74539,143.822266)" stroke="none" fill="#000000"><path transform="matrix(1,0,0,1,0,0)" stroke="none" fill="#000000" d="M8.42 -18.57Q9.54 -18.57 10.42 -18.22Q11.3 -17.88 11.93 -17.31Q12.56 -16.74 12.92 -16Q13.28 -15.27 13.35 -14.48L11.35 -14.06Q11.32 -14.05 11.27 -14.05Q11.23 -14.05 11.19 -14.05Q10.97 -14.05 10.8 -14.17Q10.63 -14.29 10.53 -14.54Q10.41 -14.87 10.24 -15.17Q10.06 -15.47 9.8 -15.69Q9.55 -15.91 9.21 -16.05Q8.86 -16.18 8.42 -16.18Q7.89 -16.18 7.47 -16Q7.05 -15.81 6.76 -15.5Q6.46 -15.19 6.31 -14.78Q6.16 -14.36 6.16 -13.91Q6.16 -13.53 6.24 -13.17Q6.32 -12.81 6.5 -12.46Q6.68 -12.1 6.97 -11.73Q7.25 -11.35 7.67 -10.92L12.55 -5.85Q12.97 -6.65 13.22 -7.54Q13.47 -8.43 13.55 -9.35Q13.58 -9.64 13.74 -9.82Q13.91 -9.99 14.2 -9.99L16.17 -9.99Q16.15 -8.32 15.68 -6.79Q15.21 -5.27 14.34 -3.99L18.19 0L15.11 0Q14.87 0 14.69 -0.03Q14.5 -0.05 14.34 -0.12Q14.17 -0.19 14.02 -0.3Q13.87 -0.42 13.7 -0.6L12.43 -1.9Q11.21 -0.91 9.72 -0.36Q8.23 0.2 6.49 0.2Q5.42 0.2 4.41 -0.16Q3.39 -0.52 2.59 -1.21Q1.79 -1.89 1.3 -2.86Q0.81 -3.84 0.81 -5.05Q0.81 -5.91 1.09 -6.67Q1.37 -7.44 1.87 -8.1Q2.36 -8.76 3.04 -9.3Q3.72 -9.83 4.53 -10.21Q3.86 -11.16 3.55 -12.07Q3.24 -12.98 3.24 -13.88Q3.24 -14.83 3.59 -15.69Q3.94 -16.55 4.6 -17.18Q5.27 -17.82 6.24 -18.19Q7.2 -18.57 8.42 -18.57ZM4 -5.31Q4 -4.61 4.24 -4.05Q4.48 -3.49 4.9 -3.11Q5.32 -2.72 5.87 -2.51Q6.43 -2.3 7.05 -2.3Q8.17 -2.3 9.09 -2.65Q10.01 -3 10.77 -3.62L5.94 -8.57Q4.93 -7.91 4.46 -7.09Q4 -6.26 4 -5.31Z" fill-rule="nonzero"></path></g></svg>